# xmcd
#
# Track frame offsets: 
#        150
#        13423
#        26196
#        37685
#        50609
#        67678
#        80731
#        92851
#        109405
#        123570
#        154835
#        169344
#        181315
#        191936
#        203796
#
# Disc length: 2917 seconds
#
# Revision: 1
# Processed by: cddbd v1.5.2PL0 Copyright (c) Steve Scherf et al.
# Submitted via: ExactAudioCopy v0.95b4
#
DISCID=d50b630f
DTITLE=The Temptations - the very best of the Temptations
DYEAR=2004
DGENRE=R&B
TTITLE0=My Girl
TTITLE1=Since I Lost My Baby
TTITLE2=Ain't To Proud To Beg
TTITLE3=I Wish It Would Rain
TTITLE4=Just My Imagination (running away with me)
TTITLE5=I Can't Get Next To You
TTITLE6=Too Busy Thinking About My Baby
TTITLE7=I Could Never Love Another (after loving you)
TTITLE8=I'm Gonna Make You Love Me
TTITLE9=Papa Was A Rolling Stone
TTITLE10=You're My Everything
TTITLE11=The Way You Do The Things You Do
TTITLE12=Beauty Is Only Skin Deep
TTITLE13=Get Ready
TTITLE14=All I Need
EXTD=
EXTT0=
EXTT1=
EXTT2=
EXTT3=
EXTT4=
EXTT5=
EXTT6=
EXTT7=
EXTT8=
EXTT9=
EXTT10=
EXTT11=
EXTT12=
EXTT13=
EXTT14=
PLAYORDER=
